<?xml version="1.0" encoding="UTF-8"?>
<svg width="600px" height="350px" viewBox="0 0 600 350" version="1.1" xmlns="http://www.w3.org/2000/svg" xmlns:xlink="http://www.w3.org/1999/xlink">
    <!-- Generator: Sketch 50 (54983) - http://www.bohemiancoding.com/sketch -->
    <title>screenshot copy</title>
    <desc>Created with Sketch.</desc>
    <defs>
        <linearGradient x1="0%" y1="50%" x2="100%" y2="50%" id="linearGradient-1">
            <stop stop-color="#0099D9" offset="0%"></stop>
            <stop stop-color="#005791" offset="100%"></stop>
        </linearGradient>
        <path d="M33.9786484,55.5851717 C33.9786484,58.2532095 36.073811,60.4158587 38.6601632,60.4158587 C41.2455123,60.4158587 43.3420124,58.2532095 43.3420124,55.5851717 C43.3420124,52.9195487 41.2455123,50.7562096 38.6601632,50.7562096 C36.073811,50.7562096 33.9786484,52.9195487 33.9786484,55.5851717 L33.9786484,55.5851717 Z M20.6509934,60.4144788 C20.6509934,64.0581063 23.5128664,67.0097136 27.0444827,67.0097136 C30.5744271,67.0097136 33.436969,64.0581063 33.436969,60.4144788 C33.436969,56.7729211 30.5744271,53.8216587 27.0444827,53.8216587 C23.5128664,53.8216587 20.6509934,56.7729211 20.6509934,60.4144788 L20.6509934,60.4144788 Z M3.88166756,66.5253685 C3.88166756,71.0966342 7.47313607,74.8023572 11.9042077,74.8023572 C16.3342763,74.8023572 19.9270822,71.0966342 19.9270822,66.5253685 C19.9270822,61.952378 16.3342763,58.2483798 11.9042077,58.2483798 C7.47313607,58.2483798 3.88166756,61.952378 3.88166756,66.5253685 L3.88166756,66.5253685 Z" id="path-2"></path>
        <linearGradient x1="0%" y1="66.2368445%" x2="100%" y2="50%" id="linearGradient-4">
            <stop stop-color="#8DC63F" offset="0%"></stop>
            <stop stop-color="#58A145" offset="100%"></stop>
        </linearGradient>
        <linearGradient x1="0%" y1="50%" x2="100%" y2="50%" id="linearGradient-5">
            <stop stop-color="#FFCE06" offset="0%"></stop>
            <stop stop-color="#FAA21B" offset="100%"></stop>
        </linearGradient>
        <linearGradient x1="0%" y1="50%" x2="106.443303%" y2="50%" id="linearGradient-6">
            <stop stop-color="#BA3B95" offset="0%"></stop>
            <stop stop-color="#7B3493" offset="100%"></stop>
        </linearGradient>
    </defs>
    <g id="screenshot-copy" stroke="none" stroke-width="1" fill="none" fill-rule="evenodd">
        <rect id="Rectangle" fill="#343232" x="0" y="-3" width="600" height="353"></rect>
        <g id="Group" transform="translate(95.000000, 108.000000)">
            <g id="Opin-O-logo-" transform="translate(160.000000, 0.000000)">
                <path d="M54.9387531,14.6344547 C61.3449672,14.6344547 66.7328876,16.7437187 71.1035297,20.9605699 C75.4755255,25.1764148 77.6603389,30.2807064 77.6603389,36.2744506 C77.6603389,41.574945 75.9750275,46.2727445 72.6057582,50.3668431 C68.2963694,55.6388293 62.4377123,58.272307 55.0284333,58.272307 C53.4294179,58.272307 51.8994394,58.1441883 50.4337599,57.9027079 L37,66.3102498 C37.0460246,66.3364102 37.0890034,66.367266 37.1336743,66.3937618 C42.5077197,69.465258 48.3971726,71 54.8027099,71 C64.3653296,71 72.6213253,67.7037928 79.5727275,61.1117138 C86.5241297,54.5166164 90,46.2385348 90,36.2744506 C90,26.762136 86.6175325,18.6712017 79.8468444,12.0019832 C73.0764948,5.33410619 64.8045935,2 55.0284333,2 C48.4364289,2 42.5155033,3.51763711 37.2646413,6.53714802 L49.7636963,15.1660469 C51.4127972,14.8242851 53.1322887,14.6344547 54.9387531,14.6344547" id="Fill-1" fill="#FFFFFF" fill-rule="evenodd"></path>
                <mask id="mask-3" fill="white">
                    <use xlink:href="#path-2"></use>
                </mask>
                <use id="Clip-6" fill="url(#linearGradient-1)" fill-rule="evenodd" xlink:href="#path-2"></use>
                <path d="M29.0619128,44.0528379 C29.0619128,46.1395023 30.739945,47.8317915 32.8100065,47.8317915 L32.8100065,47.8317915 C34.8814004,47.8317915 36.5597656,46.1395023 36.5597656,44.0528379 L36.5597656,44.0528379 C36.5597656,41.9658378 34.8814004,40.2745555 32.8100065,40.2745555 L32.8100065,40.2745555 C30.739945,40.2745555 29.0619128,41.9658378 29.0619128,44.0528379 M16.5139759,45.4339902 C16.5139759,48.2835609 18.8048662,50.592418 21.6326735,50.592418 L21.6326735,50.592418 C24.4601477,50.592418 26.7523703,48.2835609 26.7523703,45.4339902 L26.7523703,45.4339902 C26.7523703,42.5850908 24.4601477,40.2745555 21.6326735,40.2745555 L21.6326735,40.2745555 C18.8048662,40.2745555 16.5139759,42.5850908 16.5139759,45.4339902 M0.798828125,46.7480149 C0.798828125,50.3259211 3.67493132,53.2224811 7.22384614,53.2224811 L7.22384614,53.2224811 C10.7710956,53.2224811 13.6475319,50.3259211 13.6475319,46.7480149 L13.6475319,46.7480149 C13.6475319,43.1724581 10.7710956,40.2745555 7.22384614,40.2745555 L7.22384614,40.2745555 C3.67493132,40.2745555 0.798828125,43.1724581 0.798828125,46.7480149" id="Fill-8" fill="url(#linearGradient-4)" fill-rule="evenodd"></path>
                <path d="M0.798828125,27.6350816 C0.798828125,31.2099671 3.67493132,34.1088766 7.22384614,34.1088766 L7.22384614,34.1088766 C10.7710956,34.1088766 13.6475319,31.2099671 13.6475319,27.6350816 L13.6475319,27.6350816 C13.6475319,24.0601962 10.7710956,21.160951 7.22384614,21.160951 L7.22384614,21.160951 C3.67493132,21.160951 0.798828125,24.0601962 0.798828125,27.6350816 M16.5139759,28.9504488 C16.5139759,31.7990126 18.8048662,34.1088766 21.6326735,34.1088766 L21.6326735,34.1088766 C24.4601477,34.1088766 26.7523703,31.7990126 26.7523703,28.9504488 L26.7523703,28.9504488 C26.7523703,26.1008781 24.4601477,23.7916854 21.6326735,23.7916854 L21.6326735,23.7916854 C18.8048662,23.7916854 16.5139759,26.1008781 16.5139759,28.9504488 M29.0619128,30.3312655 C29.0619128,32.41793 30.739945,34.1088766 32.8100065,34.1088766 L32.8100065,34.1088766 C34.8814004,34.1088766 36.5597656,32.41793 36.5597656,30.3312655 L36.5597656,30.3312655 C36.5597656,28.2452724 34.8814004,26.5539901 32.8100065,26.5539901 L32.8100065,26.5539901 C30.739945,26.5539901 29.0619128,28.2452724 29.0619128,30.3312655" id="Fill-10" fill="url(#linearGradient-5)" fill-rule="evenodd"></path>
                <path d="M11.9042077,0.19764278 C7.47313607,0.19764278 3.88166756,3.9026227 3.88166756,8.4748577 L3.88166756,8.4748577 C3.88166756,13.0450229 7.47313607,16.7520726 11.9042077,16.7520726 L11.9042077,16.7520726 C16.3342763,16.7520726 19.9270822,13.0450229 19.9270822,8.4748577 L19.9270822,8.4748577 C19.9270822,3.9026227 16.3342763,0.19764278 11.9042077,0.19764278 L11.9042077,0.19764278 Z M20.6509934,14.5849698 C20.6509934,18.2257853 23.5128664,21.1790752 27.0444827,21.1790752 L27.0444827,21.1790752 C30.5744271,21.1790752 33.436969,18.2257853 33.436969,14.5849698 L33.436969,14.5849698 C33.436969,10.9400147 30.5744271,7.98913966 27.0444827,7.98913966 L27.0444827,7.98913966 C23.5128664,7.98913966 20.6509934,10.9400147 20.6509934,14.5849698 L20.6509934,14.5849698 Z M33.9786484,19.4131727 C33.9786484,22.0801373 36.073811,24.2437904 38.6601632,24.2437904 L38.6601632,24.2437904 C41.2455123,24.2437904 43.3420124,22.0801373 43.3420124,19.4131727 L43.3420124,19.4131727 C43.3420124,16.7465531 41.2455123,14.58359 38.6601632,14.58359 L38.6601632,14.58359 C36.073811,14.58359 33.9786484,16.7465531 33.9786484,19.4131727 L33.9786484,19.4131727 Z" id="Fill-3" fill="url(#linearGradient-6)" fill-rule="evenodd"></path>
            </g>
            <path d="M12.369,114.618 C11.976998,114.085997 11.4660032,113.697501 10.836,113.4525 C10.2059969,113.207499 9.59000301,113.085 8.988,113.085 C8.21799615,113.085 7.51800315,113.224999 6.888,113.505 C6.25799685,113.785001 5.71550228,114.169998 5.2605,114.66 C4.80549773,115.150002 4.45550123,115.723997 4.2105,116.382 C3.96549878,117.040003 3.843,117.753996 3.843,118.524 C3.843,119.336004 3.96199881,120.077997 4.2,120.75 C4.43800119,121.422003 4.7774978,121.999498 5.2185,122.4825 C5.65950221,122.965502 6.18799692,123.339999 6.804,123.606 C7.42000308,123.872001 8.11299615,124.005 8.883,124.005 C9.68100399,124.005 10.3879969,123.847502 11.004,123.5325 C11.6200031,123.217498 12.1169981,122.801003 12.495,122.283 L14.616,123.774 C13.9579967,124.600004 13.1530048,125.240498 12.201,125.6955 C11.2489952,126.150502 10.1360064,126.378 8.862,126.378 C7.69999419,126.378 6.63250487,126.185502 5.6595,125.8005 C4.68649514,125.415498 3.8500035,124.876503 3.15,124.1835 C2.4499965,123.490497 1.90400196,122.664505 1.512,121.7055 C1.11999804,120.746495 0.924,119.686006 0.924,118.524 C0.924,117.333994 1.13049794,116.259505 1.5435,115.3005 C1.95650207,114.341495 2.5234964,113.526003 3.2445,112.854 C3.96550361,112.181997 4.8159951,111.664002 5.796,111.3 C6.7760049,110.935998 7.83999426,110.754 8.988,110.754 C9.46400238,110.754 9.96099741,110.7995 10.479,110.8905 C10.9970026,110.9815 11.4939976,111.121499 11.97,111.3105 C12.4460024,111.499501 12.8939979,111.733999 13.314,112.014 C13.7340021,112.294001 14.0909985,112.629998 14.385,113.022 L12.369,114.618 Z M25.326,126 L22.932,126 L22.932,124.383 L22.89,124.383 C22.6659989,124.887003 22.2775028,125.331498 21.7245,125.7165 C21.1714972,126.101502 20.5170038,126.294 19.761,126.294 C19.1029967,126.294 18.5395023,126.178501 18.0705,125.9475 C17.6014977,125.716499 17.2165015,125.412002 16.9155,125.034 C16.6144985,124.655998 16.3940007,124.222002 16.254,123.732 C16.1139993,123.241998 16.044,122.738003 16.044,122.22 L16.044,115.92 L18.564,115.92 L18.564,121.506 C18.564,121.800001 18.5849998,122.107998 18.627,122.43 C18.6690002,122.752002 18.7599993,123.042499 18.9,123.3015 C19.0400007,123.560501 19.2324988,123.773999 19.4775,123.942 C19.7225012,124.110001 20.047998,124.194 20.454,124.194 C20.846002,124.194 21.1924985,124.113501 21.4935,123.9525 C21.7945015,123.791499 22.0394991,123.585001 22.2285,123.333 C22.4175009,123.080999 22.5609995,122.790502 22.659,122.4615 C22.7570005,122.132498 22.806,121.800002 22.806,121.464 L22.806,115.92 L25.326,115.92 L25.326,126 Z M33.873,118.608 C33.6489989,118.313999 33.341002,118.058501 32.949,117.8415 C32.556998,117.624499 32.1300023,117.516 31.668,117.516 C31.261998,117.516 30.8910017,117.599999 30.555,117.768 C30.2189983,117.936001 30.051,118.215998 30.051,118.608 C30.051,119.000002 30.2364981,119.276499 30.6075,119.4375 C30.9785019,119.598501 31.5209964,119.762999 32.235,119.931 C32.6130019,120.015 32.9944981,120.126999 33.3795,120.267 C33.7645019,120.407001 34.1144984,120.592499 34.4295,120.8235 C34.7445016,121.054501 34.999999,121.341498 35.196,121.6845 C35.392001,122.027502 35.49,122.443998 35.49,122.934 C35.49,123.550003 35.3745012,124.071498 35.1435,124.4985 C34.9124988,124.925502 34.6045019,125.271999 34.2195,125.538 C33.8344981,125.804001 33.3865026,125.996499 32.8755,126.1155 C32.3644974,126.234501 31.8360027,126.294 31.29,126.294 C30.5059961,126.294 29.7430037,126.150501 29.001,125.8635 C28.2589963,125.576499 27.6430025,125.167003 27.153,124.635 L28.812,123.081 C29.0920014,123.445002 29.4559978,123.745999 29.904,123.984 C30.3520022,124.222001 30.8489973,124.341 31.395,124.341 C31.5770009,124.341 31.7624991,124.32 31.9515,124.278 C32.1405009,124.236 32.3154992,124.1695 32.4765,124.0785 C32.6375008,123.9875 32.7669995,123.865001 32.865,123.711 C32.9630005,123.556999 33.012,123.368001 33.012,123.144 C33.012,122.723998 32.8195019,122.423001 32.4345,122.241 C32.0494981,122.058999 31.4720038,121.877001 30.702,121.695 C30.3239981,121.611 29.9565018,121.502501 29.5995,121.3695 C29.2424982,121.236499 28.9240014,121.061501 28.644,120.8445 C28.3639986,120.627499 28.1400008,120.358002 27.972,120.036 C27.8039992,119.713998 27.72,119.315002 27.72,118.839 C27.72,118.278997 27.8354988,117.796002 28.0665,117.39 C28.2975012,116.983998 28.6019981,116.651501 28.98,116.3925 C29.3580019,116.133499 29.7849976,115.941001 30.261,115.815 C30.7370024,115.688999 31.2269975,115.626 31.731,115.626 C32.4590036,115.626 33.1694965,115.751999 33.8625,116.004 C34.5555035,116.256001 35.104998,116.640997 35.511,117.159 L33.873,118.608 Z M36.225,117.936 L36.225,115.92 L37.989,115.92 L37.989,113.001 L40.467,113.001 L40.467,115.92 L42.987,115.92 L42.987,117.936 L40.467,117.936 L40.467,122.619 C40.467,123.067002 40.5474992,123.437999 40.7085,123.732 C40.8695008,124.026001 41.2299972,124.173 41.79,124.173 C41.9580008,124.173 42.139999,124.1555 42.336,124.1205 C42.532001,124.0855 42.7069992,124.033 42.861,123.963 L42.945,125.937 C42.7209989,126.021 42.4550015,126.0875 42.147,126.1365 C41.8389985,126.1855 41.5450014,126.21 41.265,126.21 C40.5929966,126.21 40.0470021,126.115501 39.627,125.9265 C39.2069979,125.737499 38.8745012,125.478502 38.6295,125.1495 C38.3844988,124.820498 38.2165005,124.442502 38.1255,124.0155 C38.0344995,123.588498 37.989,123.130002 37.989,122.64 L37.989,117.936 L36.225,117.936 Z M44.226,120.918 C44.226,120.119996 44.3694986,119.395503 44.6565,118.7445 C44.9435014,118.093497 45.3319976,117.537002 45.822,117.075 C46.3120025,116.612998 46.8929966,116.256001 47.565,116.004 C48.2370034,115.751999 48.9509962,115.626 49.707,115.626 C50.4630038,115.626 51.1769966,115.751999 51.849,116.004 C52.5210034,116.256001 53.1019975,116.612998 53.592,117.075 C54.0820024,117.537002 54.4704986,118.093497 54.7575,118.7445 C55.0445014,119.395503 55.188,120.119996 55.188,120.918 C55.188,121.716004 55.0445014,122.443997 54.7575,123.102 C54.4704986,123.760003 54.0820024,124.323498 53.592,124.7925 C53.1019975,125.261502 52.5210034,125.628999 51.849,125.895 C51.1769966,126.161001 50.4630038,126.294 49.707,126.294 C48.9509962,126.294 48.2370034,126.161001 47.565,125.895 C46.8929966,125.628999 46.3120025,125.261502 45.822,124.7925 C45.3319976,124.323498 44.9435014,123.760003 44.6565,123.102 C44.3694986,122.443997 44.226,121.716004 44.226,120.918 Z M46.788,120.918 C46.788,121.310002 46.8474994,121.701998 46.9665,122.094 C47.0855006,122.486002 47.2639988,122.835998 47.502,123.144 C47.7400012,123.452002 48.0409982,123.703999 48.405,123.9 C48.7690018,124.096001 49.2029975,124.194 49.707,124.194 C50.2110025,124.194 50.6449982,124.096001 51.009,123.9 C51.3730018,123.703999 51.6739988,123.452002 51.912,123.144 C52.1500012,122.835998 52.3284994,122.486002 52.4475,122.094 C52.5665006,121.701998 52.626,121.310002 52.626,120.918 C52.626,120.525998 52.5665006,120.137502 52.4475,119.7525 C52.3284994,119.367498 52.1500012,119.021002 51.912,118.713 C51.6739988,118.404998 51.3730018,118.156501 51.009,117.9675 C50.6449982,117.778499 50.2110025,117.684 49.707,117.684 C49.2029975,117.684 48.7690018,117.778499 48.405,117.9675 C48.0409982,118.156501 47.7400012,118.404998 47.502,118.713 C47.2639988,119.021002 47.0855006,119.367498 46.9665,119.7525 C46.8474994,120.137502 46.788,120.525998 46.788,120.918 Z M69.657,115.626 C70.3150033,115.626 70.8784977,115.741499 71.3475,115.9725 C71.8165023,116.203501 72.2014985,116.507998 72.5025,116.886 C72.8035015,117.264002 73.0239993,117.697998 73.164,118.188 C73.3040007,118.678002 73.374,119.181997 73.374,119.7 L73.374,126 L70.854,126 L70.854,120.414 C70.854,120.119999 70.8330002,119.812002 70.791,119.49 C70.7489998,119.167998 70.6580007,118.877501 70.518,118.6185 C70.3779993,118.359499 70.1855012,118.146001 69.9405,117.978 C69.6954988,117.809999 69.370002,117.726 68.964,117.726 C68.571998,117.726 68.2360014,117.809999 67.956,117.978 C67.6759986,118.146001 67.4450009,118.362999 67.263,118.629 C67.0809991,118.895001 66.9480004,119.192498 66.864,119.5215 C66.7799996,119.850502 66.738,120.175998 66.738,120.498 L66.738,126 L64.218,126 L64.218,119.91 C64.218,119.279997 64.0675015,118.758502 63.7665,118.3455 C63.4654985,117.932498 62.9930032,117.726 62.349,117.726 C61.9709981,117.726 61.6420014,117.806499 61.362,117.9675 C61.0819986,118.128501 60.8545009,118.334999 60.6795,118.587 C60.5044991,118.839001 60.3715005,119.129498 60.2805,119.4585 C60.1894995,119.787502 60.144,120.119998 60.144,120.456 L60.144,126 L57.624,126 L57.624,115.92 L60.018,115.92 L60.018,117.537 L60.06,117.537 C60.1720006,117.284999 60.3224991,117.047001 60.5115,116.823 C60.7005009,116.598999 60.9244987,116.396001 61.1835,116.214 C61.4425013,116.031999 61.7399983,115.888501 62.076,115.7835 C62.4120017,115.678499 62.782998,115.626 63.189,115.626 C63.9730039,115.626 64.6239974,115.800998 65.142,116.151 C65.6600026,116.501002 66.0589986,116.962997 66.339,117.537 C66.6750017,116.920997 67.1229972,116.448502 67.683,116.1195 C68.2430028,115.790498 68.9009962,115.626 69.657,115.626 Z M87.822,124.719 L87.759,124.719 C87.5069987,125.167002 87.1010028,125.534499 86.541,125.8215 C85.9809972,126.108501 85.3440036,126.252 84.63,126.252 C84.223998,126.252 83.8005022,126.199501 83.3595,126.0945 C82.9184978,125.989499 82.5125019,125.814501 82.1415,125.5695 C81.7704981,125.324499 81.4625012,125.002502 81.2175,124.6035 C80.9724988,124.204498 80.85,123.711003 80.85,123.123 C80.85,122.366996 81.0634979,121.765002 81.4905,121.317 C81.9175021,120.868998 82.4669966,120.526001 83.139,120.288 C83.8110034,120.049999 84.5564959,119.8925 85.3755,119.8155 C86.1945041,119.7385 86.9959961,119.7 87.78,119.7 L87.78,119.448 C87.78,118.817997 87.5525023,118.352502 87.0975,118.0515 C86.6424977,117.750498 86.1000031,117.6 85.47,117.6 C84.9379973,117.6 84.4270024,117.711999 83.937,117.936 C83.4469976,118.160001 83.0410016,118.432998 82.719,118.755 L81.417,117.222 C81.9910029,116.689997 82.6524963,116.291001 83.4015,116.025 C84.1505037,115.758999 84.9099961,115.626 85.68,115.626 C86.5760045,115.626 87.3144971,115.751999 87.8955,116.004 C88.4765029,116.256001 88.9349983,116.584998 89.271,116.991 C89.6070017,117.397002 89.8414993,117.851997 89.9745,118.356 C90.1075007,118.860003 90.174,119.363997 90.174,119.868 L90.174,126 L87.822,126 L87.822,124.719 Z M87.78,121.401 L87.213,121.401 C86.806998,121.401 86.3800022,121.4185 85.932,121.4535 C85.4839978,121.4885 85.0710019,121.565499 84.693,121.6845 C84.3149981,121.803501 84.0000013,121.971499 83.748,122.1885 C83.4959987,122.405501 83.37,122.702998 83.37,123.081 C83.37,123.319001 83.4224995,123.518499 83.5275,123.6795 C83.6325005,123.840501 83.7689992,123.97 83.937,124.068 C84.1050008,124.166 84.293999,124.236 84.504,124.278 C84.7140011,124.32 84.923999,124.341 85.134,124.341 C86.0020043,124.341 86.6599978,124.110002 87.108,123.648 C87.5560022,123.185998 87.78,122.556004 87.78,121.758 L87.78,121.401 Z M103.362,126 L100.968,126 L100.968,124.488 L100.926,124.488 C100.575998,125.076003 100.089503,125.523998 99.4665,125.832 C98.8434969,126.140002 98.1750036,126.294 97.461,126.294 C96.6909962,126.294 96.001503,126.150501 95.3925,125.8635 C94.783497,125.576499 94.2655021,125.191502 93.8385,124.7085 C93.4114979,124.225498 93.0825012,123.658503 92.8515,123.0075 C92.6204988,122.356497 92.505,121.660004 92.505,120.918 C92.505,120.175996 92.6239988,119.483003 92.862,118.839 C93.1000012,118.194997 93.4359978,117.635002 93.87,117.159 C94.3040022,116.682998 94.821997,116.308501 95.424,116.0355 C96.026003,115.762499 96.6839964,115.626 97.398,115.626 C97.8600023,115.626 98.2729982,115.678499 98.637,115.7835 C99.0010018,115.888501 99.3194986,116.017999 99.5925,116.172 C99.8655014,116.326001 100.099999,116.493999 100.296,116.676 C100.492001,116.858001 100.652999,117.032999 100.779,117.201 L100.842,117.201 L100.842,110.124 L103.362,110.124 L103.362,126 Z M95.067,120.918 C95.067,121.310002 95.1264994,121.701998 95.2455,122.094 C95.3645006,122.486002 95.5429988,122.835998 95.781,123.144 C96.0190012,123.452002 96.3199982,123.703999 96.684,123.9 C97.0480018,124.096001 97.4749976,124.194 97.965,124.194 C98.4270023,124.194 98.8399982,124.099501 99.204,123.9105 C99.5680018,123.721499 99.8794987,123.473002 100.1385,123.165 C100.397501,122.856998 100.593499,122.510502 100.7265,122.1255 C100.859501,121.740498 100.926,121.352002 100.926,120.96 C100.926,120.567998 100.859501,120.176002 100.7265,119.784 C100.593499,119.391998 100.397501,119.042002 100.1385,118.734 C99.8794987,118.425998 99.5680018,118.174001 99.204,117.978 C98.8399982,117.781999 98.4270023,117.684 97.965,117.684 C97.4749976,117.684 97.0480018,117.778499 96.684,117.9675 C96.3199982,118.156501 96.0190012,118.404998 95.781,118.713 C95.5429988,119.021002 95.3645006,119.367498 95.2455,119.7525 C95.1264994,120.137502 95.067,120.525998 95.067,120.918 Z M118.461,115.626 C119.119003,115.626 119.682498,115.741499 120.1515,115.9725 C120.620502,116.203501 121.005498,116.507998 121.3065,116.886 C121.607502,117.264002 121.827999,117.697998 121.968,118.188 C122.108001,118.678002 122.178,119.181997 122.178,119.7 L122.178,126 L119.658,126 L119.658,120.414 C119.658,120.119999 119.637,119.812002 119.595,119.49 C119.553,119.167998 119.462001,118.877501 119.322,118.6185 C119.181999,118.359499 118.989501,118.146001 118.7445,117.978 C118.499499,117.809999 118.174002,117.726 117.768,117.726 C117.375998,117.726 117.040001,117.809999 116.76,117.978 C116.479999,118.146001 116.249001,118.362999 116.067,118.629 C115.884999,118.895001 115.752,119.192498 115.668,119.5215 C115.584,119.850502 115.542,120.175998 115.542,120.498 L115.542,126 L113.022,126 L113.022,119.91 C113.022,119.279997 112.871502,118.758502 112.5705,118.3455 C112.269498,117.932498 111.797003,117.726 111.153,117.726 C110.774998,117.726 110.446001,117.806499 110.166,117.9675 C109.885999,118.128501 109.658501,118.334999 109.4835,118.587 C109.308499,118.839001 109.1755,119.129498 109.0845,119.4585 C108.9935,119.787502 108.948,120.119998 108.948,120.456 L108.948,126 L106.428,126 L106.428,115.92 L108.822,115.92 L108.822,117.537 L108.864,117.537 C108.976001,117.284999 109.126499,117.047001 109.3155,116.823 C109.504501,116.598999 109.728499,116.396001 109.9875,116.214 C110.246501,116.031999 110.543998,115.888501 110.88,115.7835 C111.216002,115.678499 111.586998,115.626 111.993,115.626 C112.777004,115.626 113.427997,115.800998 113.946,116.151 C114.464003,116.501002 114.862999,116.962997 115.143,117.537 C115.479002,116.920997 115.926997,116.448502 116.487,116.1195 C117.047003,115.790498 117.704996,115.626 118.461,115.626 Z M125.16,115.92 L127.68,115.92 L127.68,126 L125.16,126 L125.16,115.92 Z M124.803,112.497 C124.803,112.090998 124.953498,111.737502 125.2545,111.4365 C125.555502,111.135498 125.936998,110.985 126.399,110.985 C126.861002,110.985 127.249498,111.128499 127.5645,111.4155 C127.879502,111.702501 128.037,112.062998 128.037,112.497 C128.037,112.931002 127.879502,113.291499 127.5645,113.5785 C127.249498,113.865501 126.861002,114.009 126.399,114.009 C125.936998,114.009 125.555502,113.858502 125.2545,113.5575 C124.953498,113.256498 124.803,112.903002 124.803,112.497 Z M130.746,115.92 L133.14,115.92 L133.14,117.537 L133.182,117.537 C133.406001,117.032997 133.794497,116.588502 134.3475,116.2035 C134.900503,115.818498 135.554996,115.626 136.311,115.626 C136.969003,115.626 137.532498,115.741499 138.0015,115.9725 C138.470502,116.203501 138.855498,116.507998 139.1565,116.886 C139.457502,117.264002 139.677999,117.697998 139.818,118.188 C139.958001,118.678002 140.028,119.181997 140.028,119.7 L140.028,126 L137.508,126 L137.508,120.414 C137.508,120.119999 137.487,119.812002 137.445,119.49 C137.403,119.167998 137.312001,118.877501 137.172,118.6185 C137.031999,118.359499 136.839501,118.146001 136.5945,117.978 C136.349499,117.809999 136.024002,117.726 135.618,117.726 C135.211998,117.726 134.862001,117.806499 134.568,117.9675 C134.273999,118.128501 134.032501,118.334999 133.8435,118.587 C133.654499,118.839001 133.511,119.129498 133.413,119.4585 C133.315,119.787502 133.266,120.119998 133.266,120.456 L133.266,126 L130.746,126 L130.746,115.92 Z M146.769,117.936 L146.769,115.92 L148.533,115.92 L148.533,113.001 L151.011,113.001 L151.011,115.92 L153.531,115.92 L153.531,117.936 L151.011,117.936 L151.011,122.619 C151.011,123.067002 151.091499,123.437999 151.2525,123.732 C151.413501,124.026001 151.773997,124.173 152.334,124.173 C152.502001,124.173 152.683999,124.1555 152.88,124.1205 C153.076001,124.0855 153.250999,124.033 153.405,123.963 L153.489,125.937 C153.264999,126.021 152.999002,126.0875 152.691,126.1365 C152.382998,126.1855 152.089001,126.21 151.809,126.21 C151.136997,126.21 150.591002,126.115501 150.171,125.9265 C149.750998,125.737499 149.418501,125.478502 149.1735,125.1495 C148.928499,124.820498 148.7605,124.442502 148.6695,124.0155 C148.5785,123.588498 148.533,123.130002 148.533,122.64 L148.533,117.936 L146.769,117.936 Z M160.965,115.626 C161.623003,115.626 162.186498,115.741499 162.6555,115.9725 C163.124502,116.203501 163.509498,116.507998 163.8105,116.886 C164.111502,117.264002 164.331999,117.697998 164.472,118.188 C164.612001,118.678002 164.682,119.181997 164.682,119.7 L164.682,126 L162.162,126 L162.162,120.456 C162.162,120.161999 162.141,119.857502 162.099,119.5425 C162.057,119.227498 161.969501,118.940501 161.8365,118.6815 C161.703499,118.422499 161.514501,118.209001 161.2695,118.041 C161.024499,117.872999 160.699002,117.789 160.293,117.789 C159.886998,117.789 159.537001,117.865999 159.243,118.02 C158.948999,118.174001 158.704001,118.380499 158.508,118.6395 C158.311999,118.898501 158.165,119.188998 158.067,119.511 C157.969,119.833002 157.92,120.161998 157.92,120.498 L157.92,126 L155.4,126 L155.4,110.124 L157.92,110.124 L157.92,117.327 L157.962,117.327 C158.06,117.116999 158.203499,116.910501 158.3925,116.7075 C158.581501,116.504499 158.801999,116.322501 159.054,116.1615 C159.306001,116.000499 159.592998,115.871 159.915,115.773 C160.237002,115.675 160.586998,115.626 160.965,115.626 Z M174.72,119.952 C174.72,119.629998 174.6745,119.322001 174.5835,119.028 C174.4925,118.733999 174.349001,118.475001 174.153,118.251 C173.956999,118.026999 173.708502,117.848501 173.4075,117.7155 C173.106498,117.582499 172.753002,117.516 172.347,117.516 C171.590996,117.516 170.950503,117.743498 170.4255,118.1985 C169.900497,118.653502 169.61,119.237996 169.554,119.952 L174.72,119.952 Z M177.24,121.086 L177.24,121.422 C177.24,121.534001 177.233,121.645999 177.219,121.758 L169.554,121.758 C169.582,122.122002 169.676499,122.454498 169.8375,122.7555 C169.998501,123.056502 170.211999,123.315499 170.478,123.5325 C170.744001,123.749501 171.044998,123.920999 171.381,124.047 C171.717002,124.173001 172.066998,124.236 172.431,124.236 C173.061003,124.236 173.592998,124.120501 174.027,123.8895 C174.461002,123.658499 174.817999,123.340002 175.098,122.934 L176.778,124.278 C175.783995,125.622007 174.342009,126.294 172.452,126.294 C171.667996,126.294 170.947003,126.171501 170.289,125.9265 C169.630997,125.681499 169.060502,125.335002 168.5775,124.887 C168.094498,124.438998 167.716501,123.889503 167.4435,123.2385 C167.170499,122.587497 167.034,121.849004 167.034,121.023 C167.034,120.210996 167.170499,119.472503 167.4435,118.8075 C167.716501,118.142497 168.090998,117.575502 168.567,117.1065 C169.043002,116.637498 169.606497,116.273501 170.2575,116.0145 C170.908503,115.755499 171.611996,115.626 172.368,115.626 C173.068004,115.626 173.715497,115.741499 174.3105,115.9725 C174.905503,116.203501 175.419998,116.546498 175.854,117.0015 C176.288002,117.456502 176.627499,118.023497 176.8725,118.7025 C177.117501,119.381503 177.24,120.175995 177.24,121.086 Z M191.709,115.626 C192.367003,115.626 192.930498,115.741499 193.3995,115.9725 C193.868502,116.203501 194.253498,116.507998 194.5545,116.886 C194.855502,117.264002 195.075999,117.697998 195.216,118.188 C195.356001,118.678002 195.426,119.181997 195.426,119.7 L195.426,126 L192.906,126 L192.906,120.414 C192.906,120.119999 192.885,119.812002 192.843,119.49 C192.801,119.167998 192.710001,118.877501 192.57,118.6185 C192.429999,118.359499 192.237501,118.146001 191.9925,117.978 C191.747499,117.809999 191.422002,117.726 191.016,117.726 C190.623998,117.726 190.288001,117.809999 190.008,117.978 C189.727999,118.146001 189.497001,118.362999 189.315,118.629 C189.132999,118.895001 189,119.192498 188.916,119.5215 C188.832,119.850502 188.79,120.175998 188.79,120.498 L188.79,126 L186.27,126 L186.27,119.91 C186.27,119.279997 186.119502,118.758502 185.8185,118.3455 C185.517498,117.932498 185.045003,117.726 184.401,117.726 C184.022998,117.726 183.694001,117.806499 183.414,117.9675 C183.133999,118.128501 182.906501,118.334999 182.7315,118.587 C182.556499,118.839001 182.4235,119.129498 182.3325,119.4585 C182.2415,119.787502 182.196,120.119998 182.196,120.456 L182.196,126 L179.676,126 L179.676,115.92 L182.07,115.92 L182.07,117.537 L182.112,117.537 C182.224001,117.284999 182.374499,117.047001 182.5635,116.823 C182.752501,116.598999 182.976499,116.396001 183.2355,116.214 C183.494501,116.031999 183.791998,115.888501 184.128,115.7835 C184.464002,115.678499 184.834998,115.626 185.241,115.626 C186.025004,115.626 186.675997,115.800998 187.194,116.151 C187.712003,116.501002 188.110999,116.962997 188.391,117.537 C188.727002,116.920997 189.174997,116.448502 189.735,116.1195 C190.295003,115.790498 190.952996,115.626 191.709,115.626 Z M205.464,119.952 C205.464,119.629998 205.4185,119.322001 205.3275,119.028 C205.2365,118.733999 205.093001,118.475001 204.897,118.251 C204.700999,118.026999 204.452502,117.848501 204.1515,117.7155 C203.850498,117.582499 203.497002,117.516 203.091,117.516 C202.334996,117.516 201.694503,117.743498 201.1695,118.1985 C200.644497,118.653502 200.354,119.237996 200.298,119.952 L205.464,119.952 Z M207.984,121.086 L207.984,121.422 C207.984,121.534001 207.977,121.645999 207.963,121.758 L200.298,121.758 C200.326,122.122002 200.420499,122.454498 200.5815,122.7555 C200.742501,123.056502 200.955999,123.315499 201.222,123.5325 C201.488001,123.749501 201.788998,123.920999 202.125,124.047 C202.461002,124.173001 202.810998,124.236 203.175,124.236 C203.805003,124.236 204.336998,124.120501 204.771,123.8895 C205.205002,123.658499 205.561999,123.340002 205.842,122.934 L207.522,124.278 C206.527995,125.622007 205.086009,126.294 203.196,126.294 C202.411996,126.294 201.691003,126.171501 201.033,125.9265 C200.374997,125.681499 199.804502,125.335002 199.3215,124.887 C198.838498,124.438998 198.460501,123.889503 198.1875,123.2385 C197.914499,122.587497 197.778,121.849004 197.778,121.023 C197.778,120.210996 197.914499,119.472503 198.1875,118.8075 C198.460501,118.142497 198.834998,117.575502 199.311,117.1065 C199.787002,116.637498 200.350497,116.273501 201.0015,116.0145 C201.652503,115.755499 202.355996,115.626 203.112,115.626 C203.812003,115.626 204.459497,115.741499 205.0545,115.9725 C205.649503,116.203501 206.163998,116.546498 206.598,117.0015 C207.032002,117.456502 207.371499,118.023497 207.6165,118.7025 C207.861501,119.381503 207.984,120.175995 207.984,121.086 Z M218.232,110.124 L218.232,117.201 L218.295,117.201 C218.421001,117.032999 218.581999,116.858001 218.778,116.676 C218.974001,116.493999 219.208499,116.326001 219.4815,116.172 C219.754501,116.017999 220.072998,115.888501 220.437,115.7835 C220.801002,115.678499 221.213998,115.626 221.676,115.626 C222.390004,115.626 223.047997,115.762499 223.65,116.0355 C224.252003,116.308501 224.769998,116.682998 225.204,117.159 C225.638002,117.635002 225.973999,118.194997 226.212,118.839 C226.450001,119.483003 226.569,120.175996 226.569,120.918 C226.569,121.660004 226.453501,122.356497 226.2225,123.0075 C225.991499,123.658503 225.662502,124.225498 225.2355,124.7085 C224.808498,125.191502 224.290503,125.576499 223.6815,125.8635 C223.072497,126.150501 222.383004,126.294 221.613,126.294 C220.898996,126.294 220.230503,126.140002 219.6075,125.832 C218.984497,125.523998 218.498002,125.076003 218.148,124.488 L218.106,124.488 L218.106,126 L215.712,126 L215.712,110.124 L218.232,110.124 Z M224.007,120.918 C224.007,120.525998 223.947501,120.137502 223.8285,119.7525 C223.709499,119.367498 223.531001,119.021002 223.293,118.713 C223.054999,118.404998 222.754002,118.156501 222.39,117.9675 C222.025998,117.778499 221.599002,117.684 221.109,117.684 C220.646998,117.684 220.234002,117.781999 219.87,117.978 C219.505998,118.174001 219.194501,118.425998 218.9355,118.734 C218.676499,119.042002 218.480501,119.391998 218.3475,119.784 C218.214499,120.176002 218.148,120.567998 218.148,120.96 C218.148,121.352002 218.214499,121.740498 218.3475,122.1255 C218.480501,122.510502 218.676499,122.856998 218.9355,123.165 C219.194501,123.473002 219.505998,123.721499 219.87,123.9105 C220.234002,124.099501 220.646998,124.194 221.109,124.194 C221.599002,124.194 222.025998,124.096001 222.39,123.9 C222.754002,123.703999 223.054999,123.452002 223.293,123.144 C223.531001,122.835998 223.709499,122.486002 223.8285,122.094 C223.947501,121.701998 224.007,121.310002 224.007,120.918 Z M235.263,124.719 L235.2,124.719 C234.947999,125.167002 234.542003,125.534499 233.982,125.8215 C233.421997,126.108501 232.785004,126.252 232.071,126.252 C231.664998,126.252 231.241502,126.199501 230.8005,126.0945 C230.359498,125.989499 229.953502,125.814501 229.5825,125.5695 C229.211498,125.324499 228.903501,125.002502 228.6585,124.6035 C228.413499,124.204498 228.291,123.711003 228.291,123.123 C228.291,122.366996 228.504498,121.765002 228.9315,121.317 C229.358502,120.868998 229.907997,120.526001 230.58,120.288 C231.252003,120.049999 231.997496,119.8925 232.8165,119.8155 C233.635504,119.7385 234.436996,119.7 235.221,119.7 L235.221,119.448 C235.221,118.817997 234.993502,118.352502 234.5385,118.0515 C234.083498,117.750498 233.541003,117.6 232.911,117.6 C232.378997,117.6 231.868002,117.711999 231.378,117.936 C230.887998,118.160001 230.482002,118.432998 230.16,118.755 L228.858,117.222 C229.432003,116.689997 230.093496,116.291001 230.8425,116.025 C231.591504,115.758999 232.350996,115.626 233.121,115.626 C234.017004,115.626 234.755497,115.751999 235.3365,116.004 C235.917503,116.256001 236.375998,116.584998 236.712,116.991 C237.048002,117.397002 237.282499,117.851997 237.4155,118.356 C237.548501,118.860003 237.615,119.363997 237.615,119.868 L237.615,126 L235.263,126 L235.263,124.719 Z M235.221,121.401 L234.654,121.401 C234.247998,121.401 233.821002,121.4185 233.373,121.4535 C232.924998,121.4885 232.512002,121.565499 232.134,121.6845 C231.755998,121.803501 231.441001,121.971499 231.189,122.1885 C230.936999,122.405501 230.811,122.702998 230.811,123.081 C230.811,123.319001 230.863499,123.518499 230.9685,123.6795 C231.073501,123.840501 231.209999,123.97 231.378,124.068 C231.546001,124.166 231.734999,124.236 231.945,124.278 C232.155001,124.32 232.364999,124.341 232.575,124.341 C233.443004,124.341 234.100998,124.110002 234.549,123.648 C234.997002,123.185998 235.221,122.556004 235.221,121.758 L235.221,121.401 Z M246.078,118.608 C245.853999,118.313999 245.546002,118.058501 245.154,117.8415 C244.761998,117.624499 244.335002,117.516 243.873,117.516 C243.466998,117.516 243.096002,117.599999 242.76,117.768 C242.423998,117.936001 242.256,118.215998 242.256,118.608 C242.256,119.000002 242.441498,119.276499 242.8125,119.4375 C243.183502,119.598501 243.725996,119.762999 244.44,119.931 C244.818002,120.015 245.199498,120.126999 245.5845,120.267 C245.969502,120.407001 246.319498,120.592499 246.6345,120.8235 C246.949502,121.054501 247.204999,121.341498 247.401,121.6845 C247.597001,122.027502 247.695,122.443998 247.695,122.934 C247.695,123.550003 247.579501,124.071498 247.3485,124.4985 C247.117499,124.925502 246.809502,125.271999 246.4245,125.538 C246.039498,125.804001 245.591503,125.996499 245.0805,126.1155 C244.569497,126.234501 244.041003,126.294 243.495,126.294 C242.710996,126.294 241.948004,126.150501 241.206,125.8635 C240.463996,125.576499 239.848002,125.167003 239.358,124.635 L241.017,123.081 C241.297001,123.445002 241.660998,123.745999 242.109,123.984 C242.557002,124.222001 243.053997,124.341 243.6,124.341 C243.782001,124.341 243.967499,124.32 244.1565,124.278 C244.345501,124.236 244.520499,124.1695 244.6815,124.0785 C244.842501,123.9875 244.972,123.865001 245.07,123.711 C245.168,123.556999 245.217,123.368001 245.217,123.144 C245.217,122.723998 245.024502,122.423001 244.6395,122.241 C244.254498,122.058999 243.677004,121.877001 242.907,121.695 C242.528998,121.611 242.161502,121.502501 241.8045,121.3695 C241.447498,121.236499 241.129001,121.061501 240.849,120.8445 C240.568999,120.627499 240.345001,120.358002 240.177,120.036 C240.008999,119.713998 239.925,119.315002 239.925,118.839 C239.925,118.278997 240.040499,117.796002 240.2715,117.39 C240.502501,116.983998 240.806998,116.651501 241.185,116.3925 C241.563002,116.133499 241.989998,115.941001 242.466,115.815 C242.942002,115.688999 243.431997,115.626 243.936,115.626 C244.664004,115.626 245.374497,115.751999 246.0675,116.004 C246.760503,116.256001 247.309998,116.640997 247.716,117.159 L246.078,118.608 Z M256.977,119.952 C256.977,119.629998 256.9315,119.322001 256.8405,119.028 C256.7495,118.733999 256.606001,118.475001 256.41,118.251 C256.213999,118.026999 255.965502,117.848501 255.6645,117.7155 C255.363498,117.582499 255.010002,117.516 254.604,117.516 C253.847996,117.516 253.207503,117.743498 252.6825,118.1985 C252.157497,118.653502 251.867,119.237996 251.811,119.952 L256.977,119.952 Z M259.497,121.086 L259.497,121.422 C259.497,121.534001 259.49,121.645999 259.476,121.758 L251.811,121.758 C251.839,122.122002 251.933499,122.454498 252.0945,122.7555 C252.255501,123.056502 252.468999,123.315499 252.735,123.5325 C253.001001,123.749501 253.301998,123.920999 253.638,124.047 C253.974002,124.173001 254.323998,124.236 254.688,124.236 C255.318003,124.236 255.849998,124.120501 256.284,123.8895 C256.718002,123.658499 257.074999,123.340002 257.355,122.934 L259.035,124.278 C258.040995,125.622007 256.599009,126.294 254.709,126.294 C253.924996,126.294 253.204003,126.171501 252.546,125.9265 C251.887997,125.681499 251.317502,125.335002 250.8345,124.887 C250.351498,124.438998 249.973501,123.889503 249.7005,123.2385 C249.427499,122.587497 249.291,121.849004 249.291,121.023 C249.291,120.210996 249.427499,119.472503 249.7005,118.8075 C249.973501,118.142497 250.347998,117.575502 250.824,117.1065 C251.300002,116.637498 251.863497,116.273501 252.5145,116.0145 C253.165503,115.755499 253.868996,115.626 254.625,115.626 C255.325004,115.626 255.972497,115.741499 256.5675,115.9725 C257.162503,116.203501 257.676998,116.546498 258.111,117.0015 C258.545002,117.456502 258.884499,118.023497 259.1295,118.7025 C259.374501,119.381503 259.497,120.175995 259.497,121.086 Z M272.181,126 L269.787,126 L269.787,124.488 L269.745,124.488 C269.394998,125.076003 268.908503,125.523998 268.2855,125.832 C267.662497,126.140002 266.994004,126.294 266.28,126.294 C265.509996,126.294 264.820503,126.150501 264.2115,125.8635 C263.602497,125.576499 263.084502,125.191502 262.6575,124.7085 C262.230498,124.225498 261.901501,123.658503 261.6705,123.0075 C261.439499,122.356497 261.324,121.660004 261.324,120.918 C261.324,120.175996 261.442999,119.483003 261.681,118.839 C261.919001,118.194997 262.254998,117.635002 262.689,117.159 C263.123002,116.682998 263.640997,116.308501 264.243,116.0355 C264.845003,115.762499 265.502996,115.626 266.217,115.626 C266.679002,115.626 267.091998,115.678499 267.456,115.7835 C267.820002,115.888501 268.138499,116.017999 268.4115,116.172 C268.684501,116.326001 268.918999,116.493999 269.115,116.676 C269.311001,116.858001 269.471999,117.032999 269.598,117.201 L269.661,117.201 L269.661,110.124 L272.181,110.124 L272.181,126 Z M263.886,120.918 C263.886,121.310002 263.945499,121.701998 264.0645,122.094 C264.183501,122.486002 264.361999,122.835998 264.6,123.144 C264.838001,123.452002 265.138998,123.703999 265.503,123.9 C265.867002,124.096001 266.293998,124.194 266.784,124.194 C267.246002,124.194 267.658998,124.099501 268.023,123.9105 C268.387002,123.721499 268.698499,123.473002 268.9575,123.165 C269.216501,122.856998 269.412499,122.510502 269.5455,122.1255 C269.678501,121.740498 269.745,121.352002 269.745,120.96 C269.745,120.567998 269.678501,120.176002 269.5455,119.784 C269.412499,119.391998 269.216501,119.042002 268.9575,118.734 C268.698499,118.425998 268.387002,118.174001 268.023,117.978 C267.658998,117.781999 267.246002,117.684 266.784,117.684 C266.293998,117.684 265.867002,117.778499 265.503,117.9675 C265.138998,118.156501 264.838001,118.404998 264.6,118.713 C264.361999,119.021002 264.183501,119.367498 264.0645,119.7525 C263.945499,120.137502 263.886,120.525998 263.886,120.918 Z M279.909,120.918 C279.909,120.119996 280.052499,119.395503 280.3395,118.7445 C280.626501,118.093497 281.014998,117.537002 281.505,117.075 C281.995002,116.612998 282.575997,116.256001 283.248,116.004 C283.920003,115.751999 284.633996,115.626 285.39,115.626 C286.146004,115.626 286.859997,115.751999 287.532,116.004 C288.204003,116.256001 288.784998,116.612998 289.275,117.075 C289.765002,117.537002 290.153499,118.093497 290.4405,118.7445 C290.727501,119.395503 290.871,120.119996 290.871,120.918 C290.871,121.716004 290.727501,122.443997 290.4405,123.102 C290.153499,123.760003 289.765002,124.323498 289.275,124.7925 C288.784998,125.261502 288.204003,125.628999 287.532,125.895 C286.859997,126.161001 286.146004,126.294 285.39,126.294 C284.633996,126.294 283.920003,126.161001 283.248,125.895 C282.575997,125.628999 281.995002,125.261502 281.505,124.7925 C281.014998,124.323498 280.626501,123.760003 280.3395,123.102 C280.052499,122.443997 279.909,121.716004 279.909,120.918 Z M282.471,120.918 C282.471,121.310002 282.530499,121.701998 282.6495,122.094 C282.768501,122.486002 282.946999,122.835998 283.185,123.144 C283.423001,123.452002 283.723998,123.703999 284.088,123.9 C284.452002,124.096001 284.885997,124.194 285.39,124.194 C285.894003,124.194 286.327998,124.096001 286.692,123.9 C287.056002,123.703999 287.356999,123.452002 287.595,123.144 C287.833001,122.835998 288.011499,122.486002 288.1305,122.094 C288.249501,121.701998 288.309,121.310002 288.309,120.918 C288.309,120.525998 288.249501,120.137502 288.1305,119.7525 C288.011499,119.367498 287.833001,119.021002 287.595,118.713 C287.356999,118.404998 287.056002,118.156501 286.692,117.9675 C286.327998,117.778499 285.894003,117.684 285.39,117.684 C284.885997,117.684 284.452002,117.778499 284.088,117.9675 C283.723998,118.156501 283.423001,118.404998 283.185,118.713 C282.946999,119.021002 282.768501,119.367498 282.6495,119.7525 C282.530499,120.137502 282.471,120.525998 282.471,120.918 Z M293.706,117.936 L291.795,117.936 L291.795,115.92 L293.706,115.92 L293.706,114.429 C293.706,113.826997 293.772499,113.249503 293.9055,112.6965 C294.038501,112.143497 294.262498,111.657002 294.5775,111.237 C294.892502,110.816998 295.308997,110.484501 295.827,110.2395 C296.345003,109.994499 296.995996,109.872 297.78,109.872 C298.060001,109.872 298.294499,109.8825 298.4835,109.9035 C298.672501,109.9245 298.864999,109.963 299.061,110.019 L298.893,112.161 C298.752999,112.119 298.602501,112.084 298.4415,112.056 C298.280499,112.028 298.109001,112.014 297.927,112.014 C297.562998,112.014 297.269001,112.083999 297.045,112.224 C296.820999,112.364001 296.649501,112.545999 296.5305,112.77 C296.411499,112.994001 296.331,113.238999 296.289,113.505 C296.247,113.771001 296.226,114.029999 296.226,114.282 L296.226,115.92 L298.557,115.92 L298.557,117.936 L296.226,117.936 L296.226,126 L293.706,126 L293.706,117.936 Z M310.275,111.132 L312.564,111.132 L318.969,126 L315.945,126 L314.559,122.598 L308.112,122.598 L306.768,126 L303.807,126 L310.275,111.132 Z M313.635,120.33 L311.346,114.282 L309.015,120.33 L313.635,120.33 Z M330.561,126 L328.167,126 L328.167,124.488 L328.125,124.488 C327.774998,125.076003 327.288503,125.523998 326.6655,125.832 C326.042497,126.140002 325.374004,126.294 324.66,126.294 C323.889996,126.294 323.200503,126.150501 322.5915,125.8635 C321.982497,125.576499 321.464502,125.191502 321.0375,124.7085 C320.610498,124.225498 320.281501,123.658503 320.0505,123.0075 C319.819499,122.356497 319.704,121.660004 319.704,120.918 C319.704,120.175996 319.822999,119.483003 320.061,118.839 C320.299001,118.194997 320.634998,117.635002 321.069,117.159 C321.503002,116.682998 322.020997,116.308501 322.623,116.0355 C323.225003,115.762499 323.882996,115.626 324.597,115.626 C325.059002,115.626 325.471998,115.678499 325.836,115.7835 C326.200002,115.888501 326.518499,116.017999 326.7915,116.172 C327.064501,116.326001 327.298999,116.493999 327.495,116.676 C327.691001,116.858001 327.851999,117.032999 327.978,117.201 L328.041,117.201 L328.041,110.124 L330.561,110.124 L330.561,126 Z M322.266,120.918 C322.266,121.310002 322.325499,121.701998 322.4445,122.094 C322.563501,122.486002 322.741999,122.835998 322.98,123.144 C323.218001,123.452002 323.518998,123.703999 323.883,123.9 C324.247002,124.096001 324.673998,124.194 325.164,124.194 C325.626002,124.194 326.038998,124.099501 326.403,123.9105 C326.767002,123.721499 327.078499,123.473002 327.3375,123.165 C327.596501,122.856998 327.792499,122.510502 327.9255,122.1255 C328.058501,121.740498 328.125,121.352002 328.125,120.96 C328.125,120.567998 328.058501,120.176002 327.9255,119.784 C327.792499,119.391998 327.596501,119.042002 327.3375,118.734 C327.078499,118.425998 326.767002,118.174001 326.403,117.978 C326.038998,117.781999 325.626002,117.684 325.164,117.684 C324.673998,117.684 324.247002,117.778499 323.883,117.9675 C323.518998,118.156501 323.218001,118.404998 322.98,118.713 C322.741999,119.021002 322.563501,119.367498 322.4445,119.7525 C322.325499,120.137502 322.266,120.525998 322.266,120.918 Z M345.66,115.626 C346.318003,115.626 346.881498,115.741499 347.3505,115.9725 C347.819502,116.203501 348.204498,116.507998 348.5055,116.886 C348.806502,117.264002 349.026999,117.697998 349.167,118.188 C349.307001,118.678002 349.377,119.181997 349.377,119.7 L349.377,126 L346.857,126 L346.857,120.414 C346.857,120.119999 346.836,119.812002 346.794,119.49 C346.752,119.167998 346.661001,118.877501 346.521,118.6185 C346.380999,118.359499 346.188501,118.146001 345.9435,117.978 C345.698499,117.809999 345.373002,117.726 344.967,117.726 C344.574998,117.726 344.239001,117.809999 343.959,117.978 C343.678999,118.146001 343.448001,118.362999 343.266,118.629 C343.083999,118.895001 342.951,119.192498 342.867,119.5215 C342.783,119.850502 342.741,120.175998 342.741,120.498 L342.741,126 L340.221,126 L340.221,119.91 C340.221,119.279997 340.070502,118.758502 339.7695,118.3455 C339.468498,117.932498 338.996003,117.726 338.352,117.726 C337.973998,117.726 337.645001,117.806499 337.365,117.9675 C337.084999,118.128501 336.857501,118.334999 336.6825,118.587 C336.507499,118.839001 336.3745,119.129498 336.2835,119.4585 C336.1925,119.787502 336.147,120.119998 336.147,120.456 L336.147,126 L333.627,126 L333.627,115.92 L336.021,115.92 L336.021,117.537 L336.063,117.537 C336.175001,117.284999 336.325499,117.047001 336.5145,116.823 C336.703501,116.598999 336.927499,116.396001 337.1865,116.214 C337.445501,116.031999 337.742998,115.888501 338.079,115.7835 C338.415002,115.678499 338.785998,115.626 339.192,115.626 C339.976004,115.626 340.626997,115.800998 341.145,116.151 C341.663003,116.501002 342.061999,116.962997 342.342,117.537 C342.678002,116.920997 343.125997,116.448502 343.686,116.1195 C344.246003,115.790498 344.903996,115.626 345.66,115.626 Z M352.359,115.92 L354.879,115.92 L354.879,126 L352.359,126 L352.359,115.92 Z M352.002,112.497 C352.002,112.090998 352.152498,111.737502 352.4535,111.4365 C352.754502,111.135498 353.135998,110.985 353.598,110.985 C354.060002,110.985 354.448498,111.128499 354.7635,111.4155 C355.078502,111.702501 355.236,112.062998 355.236,112.497 C355.236,112.931002 355.078502,113.291499 354.7635,113.5785 C354.448498,113.865501 354.060002,114.009 353.598,114.009 C353.135998,114.009 352.754502,113.858502 352.4535,113.5575 C352.152498,113.256498 352.002,112.903002 352.002,112.497 Z M357.945,115.92 L360.339,115.92 L360.339,117.537 L360.381,117.537 C360.605001,117.032997 360.993497,116.588502 361.5465,116.2035 C362.099503,115.818498 362.753996,115.626 363.51,115.626 C364.168003,115.626 364.731498,115.741499 365.2005,115.9725 C365.669502,116.203501 366.054498,116.507998 366.3555,116.886 C366.656502,117.264002 366.876999,117.697998 367.017,118.188 C367.157001,118.678002 367.227,119.181997 367.227,119.7 L367.227,126 L364.707,126 L364.707,120.414 C364.707,120.119999 364.686,119.812002 364.644,119.49 C364.602,119.167998 364.511001,118.877501 364.371,118.6185 C364.230999,118.359499 364.038501,118.146001 363.7935,117.978 C363.548499,117.809999 363.223002,117.726 362.817,117.726 C362.410998,117.726 362.061001,117.806499 361.767,117.9675 C361.472999,118.128501 361.231501,118.334999 361.0425,118.587 C360.853499,118.839001 360.71,119.129498 360.612,119.4585 C360.514,119.787502 360.465,120.119998 360.465,120.456 L360.465,126 L357.945,126 L357.945,115.92 Z M370.209,115.92 L372.729,115.92 L372.729,126 L370.209,126 L370.209,115.92 Z M369.852,112.497 C369.852,112.090998 370.002498,111.737502 370.3035,111.4365 C370.604502,111.135498 370.985998,110.985 371.448,110.985 C371.910002,110.985 372.298498,111.128499 372.6135,111.4155 C372.928502,111.702501 373.086,112.062998 373.086,112.497 C373.086,112.931002 372.928502,113.291499 372.6135,113.5785 C372.298498,113.865501 371.910002,114.009 371.448,114.009 C370.985998,114.009 370.604502,113.858502 370.3035,113.5575 C370.002498,113.256498 369.852,112.903002 369.852,112.497 Z M387.828,115.626 C388.486003,115.626 389.049498,115.741499 389.5185,115.9725 C389.987502,116.203501 390.372498,116.507998 390.6735,116.886 C390.974502,117.264002 391.194999,117.697998 391.335,118.188 C391.475001,118.678002 391.545,119.181997 391.545,119.7 L391.545,126 L389.025,126 L389.025,120.414 C389.025,120.119999 389.004,119.812002 388.962,119.49 C388.92,119.167998 388.829001,118.877501 388.689,118.6185 C388.548999,118.359499 388.356501,118.146001 388.1115,117.978 C387.866499,117.809999 387.541002,117.726 387.135,117.726 C386.742998,117.726 386.407001,117.809999 386.127,117.978 C385.846999,118.146001 385.616001,118.362999 385.434,118.629 C385.251999,118.895001 385.119,119.192498 385.035,119.5215 C384.951,119.850502 384.909,120.175998 384.909,120.498 L384.909,126 L382.389,126 L382.389,119.91 C382.389,119.279997 382.238502,118.758502 381.9375,118.3455 C381.636498,117.932498 381.164003,117.726 380.52,117.726 C380.141998,117.726 379.813001,117.806499 379.533,117.9675 C379.252999,118.128501 379.025501,118.334999 378.8505,118.587 C378.675499,118.839001 378.5425,119.129498 378.4515,119.4585 C378.3605,119.787502 378.315,120.119998 378.315,120.456 L378.315,126 L375.795,126 L375.795,115.92 L378.189,115.92 L378.189,117.537 L378.231,117.537 C378.343001,117.284999 378.493499,117.047001 378.6825,116.823 C378.871501,116.598999 379.095499,116.396001 379.3545,116.214 C379.613501,116.031999 379.910998,115.888501 380.247,115.7835 C380.583002,115.678499 380.953998,115.626 381.36,115.626 C382.144004,115.626 382.794997,115.800998 383.313,116.151 C383.831003,116.501002 384.229999,116.962997 384.51,117.537 C384.846002,116.920997 385.293997,116.448502 385.854,116.1195 C386.414003,115.790498 387.071996,115.626 387.828,115.626 Z M400.743,124.719 L400.68,124.719 C400.427999,125.167002 400.022003,125.534499 399.462,125.8215 C398.901997,126.108501 398.265004,126.252 397.551,126.252 C397.144998,126.252 396.721502,126.199501 396.2805,126.0945 C395.839498,125.989499 395.433502,125.814501 395.0625,125.5695 C394.691498,125.324499 394.383501,125.002502 394.1385,124.6035 C393.893499,124.204498 393.771,123.711003 393.771,123.123 C393.771,122.366996 393.984498,121.765002 394.4115,121.317 C394.838502,120.868998 395.387997,120.526001 396.06,120.288 C396.732003,120.049999 397.477496,119.8925 398.2965,119.8155 C399.115504,119.7385 399.916996,119.7 400.701,119.7 L400.701,119.448 C400.701,118.817997 400.473502,118.352502 400.0185,118.0515 C399.563498,117.750498 399.021003,117.6 398.391,117.6 C397.858997,117.6 397.348002,117.711999 396.858,117.936 C396.367998,118.160001 395.962002,118.432998 395.64,118.755 L394.338,117.222 C394.912003,116.689997 395.573496,116.291001 396.3225,116.025 C397.071504,115.758999 397.830996,115.626 398.601,115.626 C399.497004,115.626 400.235497,115.751999 400.8165,116.004 C401.397503,116.256001 401.855998,116.584998 402.192,116.991 C402.528002,117.397002 402.762499,117.851997 402.8955,118.356 C403.028501,118.860003 403.095,119.363997 403.095,119.868 L403.095,126 L400.743,126 L400.743,124.719 Z M400.701,121.401 L400.134,121.401 C399.727998,121.401 399.301002,121.4185 398.853,121.4535 C398.404998,121.4885 397.992002,121.565499 397.614,121.6845 C397.235998,121.803501 396.921001,121.971499 396.669,122.1885 C396.416999,122.405501 396.291,122.702998 396.291,123.081 C396.291,123.319001 396.343499,123.518499 396.4485,123.6795 C396.553501,123.840501 396.689999,123.97 396.858,124.068 C397.026001,124.166 397.214999,124.236 397.425,124.278 C397.635001,124.32 397.844999,124.341 398.055,124.341 C398.923004,124.341 399.580998,124.110002 400.029,123.648 C400.477002,123.185998 400.701,122.556004 400.701,121.758 L400.701,121.401 Z M406.077,110.124 L408.597,110.124 L408.597,126 L406.077,126 L406.077,110.124 Z" id="Custom-admin-theme-b" fill="#FFFFFF"></path>
        </g>
    </g>
</svg>